PathFileType	4	(X/Y/Z)	Patient4_TMGait_0pt3_03_left_11.trc.trc
DataRate	CameraRate	NumFrames	NumMarkers	Units	OrigDataRate	OrigDataStartFrame	OrigNumFrames
53.231939163498	53.231939163498	4	33	mm	53.231939163498	71	       141
Frame#	Time	Sacral			L.Shoulder			Chest			R.Shoulder			Neck			R.ASIS			L.ASIS			R.Thigh.Superior			R.Thigh.Lateral			R.Thigh.Inferior			R.Patella			L.Thigh.Superior			L.Thigh.Lateral			L.Thigh.Inferior			L.Patella			L.Shank.Superior			L.Shank.Lateral			L.Shank.Inferior			R.Shank.Superior			R.Shank.Lateral			R.Shank.Inferior			R.Heel			R.Midfoot.Superior			R.Midfoot.Lateral			R.Toe			L.Heel			L.Midfoot.Lateral			L.Midfoot.Superior			L.Toe			L.Elbow			L.Wrist			R.Elbow			R.Wrist			
		X1	Y1	Z1	X2	Y2	Z2	X3	Y3	Z3	X4	Y4	Z4	X5	Y5	Z5	X6	Y6	Z6	X7	Y7	Z7	X8	Y8	Z8	X9	Y9	Z9	X10	Y10	Z10	X11	Y11	Z11	X12	Y12	Z12	X13	Y13	Z13	X14	Y14	Z14	X15	Y15	Z15	X16	Y16	Z16	X17	Y17	Z17	X18	Y18	Z18	X19	Y19	Z19	X20	Y20	Z20	X21	Y21	Z21	X22	Y22	Z22	X23	Y23	Z23	X24	Y24	Z24	X25	Y25	Z25	X26	Y26	Z26	X27	Y27	Z27	X28	Y28	Z28	X29	Y29	Z29	X30	Y30	Z30	X31	Y31	Z31	X32	Y32	Z32	X33	Y33	Z33	

71	21.185000000000	795.562868081496	1018.072451807885	408.825658357372	1062.757680942586	1429.454168609987	282.304315315560	1107.316912652031	1352.698540336058	464.121872706142	985.544232213942	1436.462595659704	607.551873358532	1004.433426421989	1492.608813909638	432.791677948094	987.708041121824	943.753557380121	581.195099070646	1038.094656970210	953.157738483045	310.123951463696	1054.826650202140	763.717366464093	560.331222613329	992.660991345019	645.986983382697	621.956118524383	1084.027067526154	601.551046369760	550.036389244063	1108.386443489538	518.622580989034	567.595853094126	1049.676586861057	732.274108509048	347.964523545116	959.901785203625	623.643699469789	275.267914789422	1021.666515504862	540.700419389603	354.461772964517	1012.331239271410	471.392804141735	363.283560780577	975.504516138279	403.208678469855	351.622139327414	878.007468390914	299.828343932207	293.741116580223	903.136483644960	185.389779696442	370.344516269370	1086.690536323978	430.401853927928	577.440981268946	1023.326599333109	321.392494612682	641.392339699981	1088.759430145828	229.775183508431	592.845785250309	985.950394026050	43.216054269733	566.669625558002	1148.288766159607	117.007011301033	605.174601146497	1072.161409818282	38.905108384789	637.792623009595	1274.918964842714	83.355517172482	628.466511684603	756.381498442524	39.232242574924	404.832711956297	833.111948063387	35.772345923482	327.113694908255	916.895682066209	95.496812555489	358.409547110052	1045.436780325995	40.066017612048	332.832316165119	1163.777197092553	1116.503100340307	132.894892755792	1417.855892081310	1091.760448257916	173.065819856706	813.865679645322	1123.039179475520	678.128835496259	801.976484944306	861.579822601525	687.554366847246	
72	21.203785714286	796.329828927102	1017.078624711637	411.033572996719	1063.589160306984	1428.393885248487	285.645293413315	1107.265999805983	1352.057575330594	467.780395083649	984.858194113356	1436.169739879016	610.409023810827	1004.453321043517	1491.749637466505	435.686926195482	987.581020974195	942.323115074910	584.243511560466	1039.191040105785	952.471385403930	313.504920878641	1053.442645739844	761.199060516285	564.154067014308	989.137126532881	643.426737593413	624.204682652629	1080.974090587287	599.303414608959	552.867875002741	1104.218875272741	517.817780207051	569.052505444879	1048.760507240367	730.914930195519	350.505522937114	958.075286226765	623.339803120374	276.722707803450	1018.722651919868	539.452262788898	355.545899481579	1008.520374288347	470.249508637402	364.068149667434	971.506145435233	402.459144411200	352.318690295130	873.406822506932	299.760020510568	294.170067912581	897.895525095541	185.021941200833	370.516971681047	1085.544984908264	429.179946780161	579.121447205451	1025.461574710668	318.203974983983	643.100001946819	1093.410064634841	228.439975789247	594.285367518428	995.061498170766	40.830108849549	568.202983256914	1156.372181423388	116.218150338162	606.139365995526	1081.439803891134	37.378198487735	638.966345473778	1283.485370136714	83.973976073336	629.008351348709	750.683573451939	39.142695118137	404.789525247495	827.399332400388	35.672920784755	327.093470929740	911.170939712625	95.420975228857	358.416567287218	1039.723591933970	40.039190867444	332.841596842265	1168.085110707326	1116.735577066235	136.923987012448	1422.539653175144	1100.856465053473	177.274453510294	811.876376865106	1123.634620697479	679.813165189294	802.894222025350	861.816888431260	688.680989272810	
73	21.222571428571	797.246010556578	1015.735218082230	413.827464659637	1064.038621365828	1427.189164685042	289.247083439344	1107.294688021711	1351.226814896833	471.563466747302	984.512222773228	1435.528476037766	613.726218400395	1004.432258771308	1490.667519913993	438.980745340526	988.011609222713	940.582322222334	587.368734914495	1040.354627481237	951.629404220215	316.888141621919	1053.043803075809	758.687076505869	567.675881203628	986.935602006448	640.774532062111	626.179964284472	1079.237027544545	597.159648289170	555.300034419764	1101.161388194034	516.545059986928	570.218355785500	1048.347342932354	729.487437379213	352.930426084828	956.613997556894	622.882803999357	278.402401811710	1016.385455395050	538.108431693792	356.674123025067	1005.383069222692	468.939018832791	364.947025256318	968.011452898309	401.534204005432	353.139159001241	869.081934594872	299.715359676767	294.731935919893	892.816136030504	184.589082066912	370.729489057325	1084.662612665745	427.467960081233	580.496214389924	1026.682543537785	315.358201016066	644.280804162781	1096.024772655819	226.887723007987	595.191931118412	1000.074138230608	39.770662550411	568.931956974128	1160.977242291551	114.988794790614	606.678547757711	1086.260067851395	36.550262368774	639.689972026191	1287.932770490291	82.798044790708	629.612427071039	744.989083047809	39.070515790389	404.747973547807	821.697303880306	35.584199644351	327.081560349397	905.458133992348	95.347128019948	358.427928200528	1034.014132616756	39.997361517481	332.838964332762	1171.727412399618	1116.614305151576	141.257987843210	1426.324007230560	1108.793142945742	181.478459681182	811.223419669928	1123.335675422988	682.216976531949	805.091065421010	861.194421681264	690.603402389990	
74	21.241357142857	798.320730709914	1014.175673265043	417.157509014205	1064.170743389675	1425.958432929270	293.119135426166	1107.432322724120	1350.303863809075	475.489268678974	984.501824885068	1434.628061482889	617.507809222126	1004.395312548133	1489.467885843411	442.686742596134	988.992678501976	938.671776035004	590.575288943690	1041.603520922066	950.725451087946	320.267482534583	1053.626869326686	756.308389040621	570.832323904266	986.103735176107	638.197544091849	627.908614404955	1078.798493280576	595.217515562464	557.311726202451	1099.293187675216	514.929289122664	571.105735532181	1048.374980551855	728.036440556970	355.240937549943	955.418650708754	622.349055631904	280.296676409618	1014.515969936293	536.727623553037	357.858362670966	1002.777951589931	467.534357860277	365.928186609843	964.903446173569	400.516428785292	354.074453917812	864.950201129361	299.746306145368	295.419210684075	887.862862994846	184.147569405533	370.976467772995	1084.174240869188	425.388435843278	581.558345916131	1027.241621829632	312.820770041827	645.029038006656	1096.939180887412	225.080709259561	595.583652612265	1001.456089649018	39.615362641811	568.991830025415	1162.556332862051	113.304607345359	606.787426200859	1087.208488173012	36.172864370636	640.032692149770	1288.890295511367	80.065470897675	630.175793984675	739.300743410924	39.053572939556	404.699865268060	816.011117129815	35.527563650821	327.076538479839	899.768668845256	95.290873347689	358.436338810219	1028.311954830559	39.938058065817	332.823306780406	1174.621408196409	1116.195396407974	145.875145057183	1429.205630102180	1115.530946550312	185.672241854174	811.841079400261	1122.244872927911	685.349542147247	808.359252345869	859.840420607638	693.368093490898	
